<svg width="1280" height="441" viewBox="0 0 1280 441" fill="none" xmlns="http://www.w3.org/2000/svg">
<g clip-path="url(#clip0_2794_44082)">
<rect width="1280" height="441" fill="white"/>
<path opacity="0.6" d="M-20.1112 164.745C9.47489 105.005 43.7985 48.0594 91.0101 10.5335C138.163 -26.8294 199.997 -42.6608 259.365 -17.4043C330.268 12.7825 390.637 96.8671 462.581 108.689C509.147 116.316 550.575 91.8373 591.15 71.758C631.832 51.6377 678.548 35.7731 723.633 59.691C804.457 102.589 838.743 250.108 921.248 283.515C975.689 305.489 1024.56 266.899 1075.82 252.079C1140.69 233.388 1216.92 255.333 1277.82 310.306C1338.72 365.279 1383.02 452.224 1395.36 540.615" stroke="url(#paint0_linear_2794_44082)" stroke-width="2" stroke-miterlimit="10"/>
<path opacity="0.6" d="M-18.4136 152.158C11.1972 93.1097 45.8992 37.1398 93.1241 0.590952C121.581 -21.526 155.361 -35.8836 190.596 -38.3168C213.599 -39.9373 237.282 -36.3487 260.515 -26.6923C331.028 2.80357 391.546 84.4449 462.587 98.02C487.837 102.825 511.508 98.841 534.607 90.8688C554.164 84.1293 573.258 74.6228 592.223 65.7273C618.788 53.1841 647.863 41.7729 677.084 41.1096C693.261 40.7323 709.466 43.5712 725.325 51.1747C756.538 66.017 781.063 95.6597 804.262 128.482C837.787 175.685 868.909 229.572 912.348 255.53C916.98 258.366 921.787 260.712 926.759 262.854C981.214 285.805 1029.17 251.778 1078.52 240.506C1126.92 229.603 1181.36 242.457 1231.61 275.316C1246.15 284.837 1260.24 296.07 1273.82 308.77C1298.19 331.736 1320.29 359.514 1339.04 389.989C1367.07 435.255 1387.72 486.325 1397.23 536.943" stroke="url(#paint1_linear_2794_44082)" stroke-width="2" stroke-miterlimit="10"/>
<path opacity="0.6" d="M-16.8683 139.487C12.9203 81.2123 47.8947 26.2593 95.1443 -9.59741C123.637 -31.3073 157.194 -45.2979 192.217 -47.6489C215.114 -49.2284 238.597 -45.8427 261.782 -36.3083C331.859 -7.62531 392.361 71.7768 462.557 86.9425C487.785 92.3176 511.399 89.7586 534.664 82.8445C554.447 77 573.883 68.0623 593.048 59.3698C620.014 47.2325 649.301 35.7392 678.556 34.2208C694.697 33.4364 710.771 35.6243 726.818 42.4537C757.992 55.6269 782.878 82.7442 806.533 113.285C840.712 157.147 873.407 208.179 917.459 234.462C922.197 237.256 926.945 239.765 931.917 241.907C986.444 265.672 1033.28 236.29 1080.81 228.81C1127.29 221.455 1179.06 237.168 1227.78 272.027C1241.93 282.119 1255.85 293.841 1269.24 307.03C1293.43 330.771 1315.82 358.995 1335.31 389.468C1364.32 434.771 1386.95 484.655 1398.63 533.026" stroke="url(#paint2_linear_2794_44082)" stroke-width="2" stroke-miterlimit="10"/>
<path opacity="0.6" d="M-15.2736 126.944C14.5397 69.361 49.8924 15.384 97.214 -19.6587C125.684 -40.7986 158.97 -54.544 193.782 -56.8129C216.467 -58.3104 239.796 -55.0056 262.888 -45.7152C332.68 -17.7641 393.273 59.3577 462.577 75.992C487.723 82.1002 511.339 80.8033 534.83 74.7841C554.837 69.8346 574.463 61.385 594.029 53.0983C621.396 41.3668 651 29.7503 680.184 27.4179C696.394 26.1855 712.491 27.8033 728.419 33.6967C759.661 45.1596 784.649 69.7116 808.913 98.0523C843.899 138.654 878.072 186.587 922.678 213.357C927.416 216.151 932.212 218.782 937.231 221.046C991.877 245.747 1037.7 220.969 1083.21 217.078C1127.88 213.231 1176.77 231.884 1224.21 268.782C1237.97 279.446 1251.66 291.82 1264.93 305.335C1288.98 329.972 1311.62 358.521 1331.73 389.033C1361.84 434.333 1386.34 483.07 1400.15 529.073" stroke="url(#paint3_linear_2794_44082)" stroke-width="2" stroke-miterlimit="10"/>
<path opacity="0.6" d="M-13.6825 114.398C16.3087 57.5881 51.9338 4.62797 99.1741 -29.6816C127.575 -50.3734 160.743 -63.7927 195.343 -65.9795C217.923 -67.4359 241.098 -64.2121 263.942 -55.2466C333.451 -28.0275 394.028 46.8552 462.486 65.0799C487.611 71.7582 511.123 71.7646 534.827 66.9254C555.013 62.7489 575.027 54.9901 594.948 46.9873C622.715 35.6617 652.484 23.8411 681.855 20.7345C697.982 18.9731 714.149 20.1429 730.063 25.0591C761.373 34.8119 786.558 57.0426 811.288 82.8168C846.928 120.078 882.675 165.156 928 192.208C932.784 195.124 937.686 197.714 942.6 200.019C997.212 225.576 1042.12 205.361 1085.76 205.14C1128.53 204.841 1174.64 226.394 1220.69 265.373C1234.11 276.73 1247.47 289.512 1260.68 303.475C1284.54 328.886 1307.52 358.004 1328.31 388.392C1359.52 433.688 1385.78 481.32 1401.87 525.036" stroke="url(#paint4_linear_2794_44082)" stroke-width="2" stroke-miterlimit="10"/>
<path opacity="0.6" d="M-12.1355 101.736C17.9862 45.5767 53.8837 -6.36644 101.196 -39.862C129.527 -60.1057 162.519 -73.0358 196.966 -75.3036C219.44 -76.7189 242.462 -73.5761 265.105 -64.8135C334.224 -38.2853 394.999 34.2761 462.458 54.0104C487.607 61.3808 511.015 62.6903 534.945 58.7461C555.356 55.4645 575.713 48.2747 595.833 40.4749C623.896 29.5961 654.088 17.6113 683.387 13.6907C699.584 11.4812 715.621 12 731.463 16.1022C762.841 24.1448 788.28 43.8911 813.467 67.384C849.808 101.427 887.186 143.487 933.018 170.904C937.909 173.779 942.752 176.532 947.713 178.959C1002.4 205.329 1046.34 189.84 1087.96 193.209C1128.96 196.538 1172.15 220.91 1216.87 261.807C1229.9 273.735 1243.03 287.169 1256.12 301.459C1279.79 327.644 1303.07 357.209 1324.44 387.513C1356.58 432.725 1384.87 479.292 1403.14 520.762" stroke="url(#paint5_linear_2794_44082)" stroke-width="2" stroke-miterlimit="10"/>
<path opacity="0.6" d="M-10.5437 89.1894C19.6026 33.7226 55.9258 -17.1226 103.263 -49.9261C131.523 -69.7218 164.399 -82.3259 198.528 -84.4705C220.79 -85.8037 243.659 -82.7418 266.208 -74.2232C335.043 -48.4269 395.802 21.8953 462.369 43.0982C487.543 51.1606 510.847 53.7733 535.002 50.7241C555.59 48.2155 576.231 41.7576 596.705 34.2416C625.169 23.7687 655.573 11.7018 684.953 7.04812C701.114 4.43156 717.173 4.3803 733.002 7.50544C764.342 13.8789 790.143 31.0998 815.784 52.3112C852.885 82.9723 891.731 122.218 938.176 149.959C943.066 152.834 948.015 155.546 953.023 158.095C1007.83 185.402 1050.75 174.516 1090.51 181.555C1129.6 188.433 1170.16 215.785 1213.35 258.682C1225.99 271.181 1238.94 285.105 1251.86 299.883C1275.39 326.964 1298.91 356.854 1321.01 387.156C1354.25 432.364 1384.41 477.786 1404.85 517.01" stroke="url(#paint6_linear_2794_44082)" stroke-width="2" stroke-miterlimit="10"/>
<path opacity="0.6" d="M-8.89081 76.4808C21.4334 21.787 58.029 -28.0413 105.285 -60.1117C133.523 -79.3373 166.128 -91.6961 200.151 -93.7997C222.307 -95.0919 245.023 -92.1109 267.324 -83.9172C335.722 -58.9338 396.666 9.35204 462.235 32.0645C487.433 40.8189 510.586 44.6128 534.955 42.7436C555.768 41.1301 576.704 35.119 597.426 27.928C626.291 17.861 656.966 5.54894 686.321 0.203155C702.552 -2.86148 718.587 -3.60483 734.391 -1.17175C765.799 3.49148 791.701 18.1472 817.952 37.1581C855.754 64.6006 896.125 100.87 943.288 128.893C948.226 131.89 953.176 134.602 958.184 137.151C1013.06 165.272 1055.01 159.112 1092.75 169.74C1130.08 180.247 1167.72 210.418 1209.62 255.354C1221.93 268.547 1234.55 282.879 1247.44 298.227C1270.78 326.082 1294.54 356.583 1317.33 386.76C1351.56 432.006 1383.73 476.362 1406.3 513.218" stroke="url(#paint7_linear_2794_44082)" stroke-width="2" stroke-miterlimit="10"/>
<path opacity="0.6" d="M-7.29917 63.9339C23.1555 9.89103 60.0235 -38.9202 107.351 -70.1766C135.625 -88.9951 168.007 -100.987 201.712 -102.967C223.715 -104.34 246.22 -101.277 268.532 -93.3687C336.646 -69.1172 397.622 -2.94854 462.252 21.1105C487.427 30.435 510.629 35.613 535.117 34.6798C556.109 33.8392 577.434 28.5191 598.51 21.6119C627.776 11.9508 658.662 -0.443338 688.157 -6.68527C704.352 -10.1569 720.409 -11.4703 736.2 -10.0143C767.676 -7.06127 793.833 5.11003 820.539 21.8395C859.102 45.9004 901.046 79.3145 948.716 107.703C953.654 110.7 958.651 113.534 963.706 116.205C1018.59 145.303 1059.79 143.787 1095.36 157.923C1131.03 172.018 1165.64 205.049 1206.21 251.903C1218.13 265.667 1230.51 280.651 1243.29 296.325C1266.45 324.954 1290.5 355.902 1314.02 386.077C1349.34 431.319 1383.39 474.53 1408.13 509.139" stroke="url(#paint8_linear_2794_44082)" stroke-width="2" stroke-miterlimit="10"/>
<path opacity="0.6" d="M-5.70667 51.3885C24.82 -1.84032 62.1722 -49.7167 109.419 -80.24C137.623 -98.6104 169.888 -110.276 203.381 -112.174C225.172 -113.465 247.582 -110.646 269.741 -102.819C337.572 -79.2991 398.532 -15.3696 462.316 10.2799C487.516 20.2965 510.615 26.7776 535.375 26.8614C556.592 26.9158 578.154 22.2057 599.583 15.5823C629.25 6.32706 660.348 -6.14919 689.877 -13.2462C706.142 -17.1659 722.174 -19.1714 737.788 -18.4884C769.331 -17.2455 795.744 -7.55855 822.905 6.88952C862.169 27.7317 905.639 58.1689 953.922 86.8808C958.966 89.8368 964.009 92.7928 968.959 95.5048C1023.92 125.417 1064.19 128.749 1097.8 146.311C1131.76 164.158 1163.44 200.007 1202.58 248.82C1214.11 263.155 1226.32 278.628 1238.92 294.791C1261.89 324.195 1286.24 355.589 1310.38 385.803C1346.8 431.042 1382.71 473.106 1409.63 505.469" stroke="url(#paint9_linear_2794_44082)" stroke-width="2" stroke-miterlimit="10"/>
<path opacity="0.6" d="M-4.16188 38.7202C26.4953 -13.8576 64.12 -60.717 111.332 -90.3852C139.514 -108.186 171.556 -119.484 204.896 -121.463C226.581 -122.713 248.838 -119.975 270.749 -112.472C338.19 -89.6438 399.183 -27.8315 462.133 -0.876483C487.251 9.87317 510.352 17.6164 535.232 18.6363C556.673 19.5857 578.53 15.3224 600.207 9.02401C630.275 0.174577 661.691 -12.4248 691.148 -20.3359C707.377 -24.6626 723.385 -27.3602 739.032 -27.5323C770.644 -27.9996 797.205 -20.7559 824.928 -8.63032C864.951 8.83022 909.995 36.4125 958.843 65.3261C963.934 68.4041 968.978 71.3601 974.081 74.153C1029.16 105.001 1068.57 113.018 1100.05 134.211C1132.25 155.686 1161 194.354 1198.87 245.206C1210.05 260.235 1221.98 276.238 1234.46 292.728C1257.3 323.027 1281.94 354.868 1306.76 384.958C1344.17 430.234 1382.06 471.112 1411.16 501.228" stroke="url(#paint10_linear_2794_44082)" stroke-width="2" stroke-miterlimit="10"/>
<path opacity="0.6" d="M-2.56906 26.1763C28.266 -25.6286 66.163 -71.471 113.4 -100.447C141.512 -117.799 173.436 -128.772 206.459 -130.628C228.038 -131.837 250.036 -129.139 271.852 -121.88C339.01 -99.7831 400.081 -39.9661 462.044 -11.7864C487.188 -0.344739 510.185 8.7017 535.337 10.7385C556.956 12.4609 579.203 8.88851 601.128 2.91503C631.49 -5.48749 663.177 -18.332 692.715 -26.9762C709.014 -31.751 724.939 -34.9775 740.572 -36.1267C772.252 -38.3042 799.068 -33.5449 827.247 -23.7008C868.077 -9.49989 914.493 15.0244 964.002 44.3838C969.093 47.4618 974.243 50.3767 979.286 53.3327C1034.44 84.9948 1072.97 97.9815 1102.44 122.479C1132.87 147.868 1158.76 189.191 1195.14 241.881C1205.94 257.48 1217.59 274.014 1230 290.952C1252.64 322.025 1277.58 354.313 1303.03 384.442C1341.53 429.714 1381.29 469.446 1412.56 497.317" stroke="url(#paint11_linear_2794_44082)" stroke-width="2" stroke-miterlimit="10"/>
<path opacity="0.6" d="M-1.0233 13.5105C29.8364 -37.6022 68.1118 -82.4688 115.421 -110.631C143.462 -127.535 175.164 -138.14 208.08 -139.956C229.554 -141.123 251.398 -138.506 273.014 -131.45C339.735 -110.166 400.992 -52.3855 462.062 -22.7373C487.231 -10.6036 510.123 -0.253977 535.501 2.67782C557.345 5.29519 579.828 2.33273 602.165 -3.51992C632.929 -11.5166 664.933 -24.4843 694.505 -33.9836C710.874 -39.2065 726.774 -43.125 742.336 -45.0882C774.189 -49.017 801.155 -46.701 829.789 -39.1383C871.38 -28.3191 919.369 -6.6497 969.384 23.0745C974.581 26.1114 979.672 29.1894 984.763 32.2674C1039.88 64.7845 1077.54 82.7412 1105 110.542C1133.72 139.683 1156.63 183.703 1191.73 238.432C1202.19 254.725 1213.66 271.747 1225.85 289.053C1248.31 320.9 1273.55 353.635 1299.72 383.761C1339.32 429.03 1380.95 467.616 1414.39 493.241" stroke="url(#paint12_linear_2794_44082)" stroke-width="2" stroke-miterlimit="10"/>
<path opacity="0.6" d="M0.677623 0.924153C31.7152 -49.4156 70.263 -93.2652 117.491 -120.694C145.51 -137.028 177.047 -147.43 209.645 -149.122C230.907 -150.207 252.598 -147.671 274.073 -140.981C340.509 -120.429 401.692 -64.7245 461.929 -33.7708C487.169 -20.823 509.864 -9.41417 535.455 -5.30236C557.524 -1.79001 580.35 -4.18356 602.935 -9.7113C634.099 -17.3021 666.315 -30.3519 695.921 -40.7063C712.254 -46.3362 728.177 -50.8248 743.667 -53.6021C775.541 -59.363 802.809 -59.4094 831.898 -54.1281C874.19 -46.5275 923.705 -27.8351 974.439 2.17179C979.683 5.33071 984.774 8.40872 989.865 11.4867C1045.1 44.9399 1081.84 67.7443 1107.19 98.8908C1134.13 131.946 1154.18 178.621 1187.95 235.268C1198.02 252.132 1209.21 269.685 1221.33 287.438C1243.65 320.182 1269.18 353.364 1295.88 383.284C1336.47 428.591 1380.08 465.99 1415.65 489.246" stroke="url(#paint13_linear_2794_44082)" stroke-width="2" stroke-miterlimit="10"/>
<path opacity="0.6" d="M2.26926 -11.6201C33.4374 -61.3089 72.3049 -104.02 119.557 -130.756C147.612 -146.684 178.973 -156.596 211.313 -158.327C232.469 -159.372 254.007 -156.917 275.387 -150.471C341.434 -130.61 402.696 -76.9004 462.051 -44.7632C487.21 -31.0823 509.907 -18.4114 535.723 -13.4046C557.97 -9.11922 581.138 -10.9439 604.018 -16.0247C635.584 -23.2097 668.07 -36.5046 697.651 -47.551C714.054 -53.629 729.952 -58.8097 745.37 -62.401C777.312 -69.8721 804.835 -72.4028 834.333 -69.5249C877.384 -65.306 928.366 -49.4275 979.713 -19.0969C984.957 -15.938 990.202 -12.779 995.234 -9.53799C1050.54 24.7292 1086.3 52.5447 1109.79 87.0763C1134.92 123.923 1152.09 173.254 1184.44 231.86C1194.12 249.295 1205.07 267.5 1217.08 285.579C1239.21 319.098 1265.03 352.726 1292.47 382.644C1334.15 427.948 1379.63 464.201 1417.37 485.211" stroke="url(#paint14_linear_2794_44082)" stroke-width="2" stroke-miterlimit="10"/>
<path opacity="0.6" d="M3.81544 -24.2869C35.0555 -73.1617 74.254 -115.018 121.578 -140.941C149.563 -156.42 180.701 -165.965 212.982 -167.534C234.032 -168.538 255.417 -166.163 276.596 -159.92C342.36 -140.791 403.701 -89.0769 462.117 -55.5932C487.3 -41.2202 509.999 -27.2871 535.934 -21.3443C558.407 -16.164 581.811 -17.3787 604.997 -22.2976C636.964 -29.0767 669.662 -42.4538 699.277 -54.3553C715.597 -60.9623 731.518 -66.713 746.969 -71.1595C778.979 -80.3408 806.651 -85.3148 836.711 -84.7593C880.522 -83.922 933.077 -70.8986 984.931 -40.2031C990.281 -37.0852 995.467 -33.7633 1000.61 -30.5633C1055.93 4.68098 1090.76 37.3442 1112.25 75.1801C1135.5 115.982 1149.91 167.928 1180.92 228.451C1190.26 246.58 1200.89 265.193 1212.87 283.842C1234.86 318.256 1260.93 352.21 1288.99 382.167C1331.77 427.467 1379.12 462.574 1419.14 481.296" stroke="url(#paint15_linear_2794_44082)" stroke-width="2" stroke-miterlimit="10"/>
<path opacity="0.6" d="M5.41008 -36.8288C36.7807 -85.0525 76.2989 -125.77 123.648 -151.001C151.563 -166.032 182.584 -175.251 214.547 -176.697C235.385 -177.618 256.617 -175.324 277.654 -169.447C343.028 -151.009 404.449 -101.29 461.984 -66.6231C487.086 -51.517 509.786 -36.3219 535.888 -29.321C558.586 -23.2457 582.332 -23.8915 605.766 -28.4856C638.134 -34.8588 671.15 -48.359 700.846 -60.9936C717.236 -68.0487 733.026 -74.4504 748.512 -79.7519C780.542 -90.7654 808.517 -98.1018 839.032 -99.8278C883.65 -102.25 937.625 -92.1626 990.198 -61.1845C995.548 -58.0666 1000.84 -54.7857 1005.92 -51.4227C1061.31 -15.3644 1095.01 22.2289 1114.75 63.4089C1136.07 108.044 1147.62 162.645 1177.35 225.209C1186.31 243.909 1196.7 263.174 1208.56 282.149C1230.36 317.338 1256.67 351.901 1285.41 381.734C1329.18 427.071 1378.51 460.991 1420.71 477.468" stroke="url(#paint16_linear_2794_44082)" stroke-width="2" stroke-miterlimit="10"/>
<path opacity="0.6" d="M7.00001 -49.3777C38.5484 -96.8284 78.2918 -136.651 125.607 -161.027C153.499 -175.488 184.25 -184.462 216.107 -185.866C236.792 -186.869 257.871 -184.656 278.755 -178.86C343.797 -161.276 405.239 -113.389 461.94 -77.4161C487.114 -61.496 509.663 -45.1196 535.99 -37.2238C558.913 -30.2535 582.955 -30.4524 606.79 -34.6406C639.452 -40.5669 672.786 -54.1903 702.516 -67.68C718.87 -75.1421 734.93 -81.789 750.049 -88.3514C781.816 -101.929 810.377 -110.896 841.347 -114.903C886.62 -120.666 942.274 -113.475 995.353 -82.1318C1000.75 -78.8919 1006.04 -75.611 1011.17 -72.126C1066.68 -35.1316 1099.35 7.3506 1117.08 51.8348C1136.48 100.304 1145.31 157.641 1173.67 222C1182.13 241.312 1192.35 261.066 1204.14 280.49C1225.75 316.453 1252.36 351.463 1281.83 381.293C1326.69 426.627 1377.89 459.401 1422.26 473.631" stroke="url(#paint17_linear_2794_44082)" stroke-width="2" stroke-miterlimit="10"/>
<path opacity="0.6" d="M8.54627 -62.0433C40.1194 -108.802 80.2883 -147.527 127.628 -171.21C155.451 -185.223 186.131 -193.749 217.624 -195.152C238.203 -196.114 259.128 -193.982 279.764 -188.511C344.523 -171.659 405.832 -125.685 461.758 -88.5698C486.85 -71.9166 509.402 -54.2781 536.001 -45.3653C559.102 -37.622 583.427 -37.089 607.569 -41.1153C640.632 -46.6358 674.236 -60.5043 703.942 -74.686C720.366 -82.5962 736.154 -90.26 751.495 -97.1896C783.615 -111.746 812.099 -124.051 843.572 -130.217C889.605 -139.362 946.726 -134.985 1000.42 -103.318C1005.92 -100.119 1011.15 -96.675 1016.28 -93.19C1071.87 -55.3816 1103.4 -7.96939 1119.33 40.0219C1136.8 92.324 1142.86 152.276 1169.94 218.675C1178.06 238.68 1188.11 258.923 1199.67 278.714C1221.15 315.573 1248 350.908 1278.1 380.777C1324.01 425.986 1377.01 457.777 1423.67 469.72" stroke="url(#paint18_linear_2794_44082)" stroke-width="2" stroke-miterlimit="10"/>
<path opacity="0.6" d="M10.246 -74.6306C41.9969 -120.616 82.391 -158.446 129.803 -181.316C157.555 -194.881 188.119 -203.08 219.399 -204.401C239.766 -205.281 260.539 -203.23 281.08 -198.003C345.45 -181.841 406.838 -137.863 461.882 -99.5642C486.941 -82.0559 509.447 -63.2773 536.166 -53.4285C559.492 -44.7902 584.159 -43.6883 608.549 -47.3897C642.013 -52.5043 675.829 -66.4549 705.569 -81.4917C721.956 -89.8089 737.826 -98.2059 753.095 -105.95C785.235 -122.338 814.022 -137.005 845.951 -145.453C892.79 -157.858 951.284 -156.538 1005.74 -124.467C1011.25 -121.268 1016.63 -117.743 1021.81 -114.136C1077.36 -75.4723 1107.86 -23.1713 1122.04 28.1642C1137.48 84.3405 1140.83 147.029 1166.58 215.346C1174.32 235.922 1184.08 256.696 1195.58 276.934C1216.86 314.567 1244.06 350.471 1274.84 380.216C1321.73 425.462 1376.72 456.066 1425.55 465.763" stroke="url(#paint19_linear_2794_44082)" stroke-width="2" stroke-miterlimit="10"/>
<path opacity="0.6" d="M11.7907 -87.2998C43.6722 -132.634 84.386 -169.325 131.716 -191.462C159.552 -204.498 189.739 -212.411 220.914 -213.691C241.175 -214.53 261.794 -212.56 282.241 -207.576C346.327 -192.147 407.582 -150.082 461.899 -110.519C486.877 -92.2771 509.385 -72.2364 536.376 -61.3706C559.927 -51.8374 584.937 -50.1666 609.527 -53.665C643.345 -58.4958 677.525 -72.4475 707.193 -88.2984C723.651 -97.0637 739.39 -106.112 754.693 -114.71C786.901 -132.809 815.837 -149.919 848.327 -160.69C895.821 -176.435 955.994 -178.011 1010.96 -145.575C1016.51 -142.254 1021.9 -138.73 1027.07 -135.123C1082.74 -95.523 1112.07 -38.4139 1124.39 16.3067C1137.86 76.1943 1138.49 141.619 1162.92 211.854C1170.31 233.123 1179.74 254.305 1191.17 274.992C1212.27 313.399 1239.76 349.75 1271.16 379.534C1319.15 424.776 1376.01 454.234 1427.01 461.685" stroke="url(#paint20_linear_2794_44082)" stroke-width="2" stroke-miterlimit="10"/>
<path opacity="0.6" d="M13.3837 -99.8437C45.2899 -144.486 86.4293 -180.079 133.784 -201.524C161.55 -214.111 191.62 -221.699 222.477 -222.856C242.633 -223.653 262.992 -221.723 283.298 -217.106C346.946 -202.489 408.328 -162.297 461.764 -121.551C486.707 -102.454 509.17 -81.2732 536.386 -69.5124C560.163 -59.0842 585.362 -56.9254 610.458 -60.059C644.678 -64.4839 679.022 -78.6398 708.878 -95.2649C725.405 -104.478 741.013 -114.177 756.245 -123.59C788.473 -143.52 817.665 -163.115 850.657 -176.046C898.864 -195.294 960.551 -199.563 1016.13 -166.803C1021.79 -163.523 1027.07 -159.957 1032.33 -156.106C1088.08 -115.692 1116.27 -53.6532 1126.84 4.41146C1138.39 68.1322 1136.3 136.294 1159.3 208.487C1166.3 230.328 1175.5 252.162 1186.81 273.175C1207.77 312.478 1235.51 349.154 1267.64 378.935C1316.73 424.174 1375.45 452.486 1428.63 457.691" stroke="url(#paint21_linear_2794_44082)" stroke-width="2" stroke-miterlimit="10"/>
<path opacity="0.6" d="M14.9789 -112.385C47.0629 -156.254 88.4275 -190.952 135.854 -211.583C163.55 -223.722 193.444 -230.821 224.148 -232.059C244.092 -232.774 264.404 -230.966 284.509 -226.551C347.874 -212.667 409.124 -174.388 461.784 -132.499C486.752 -112.71 509.111 -90.2262 536.494 -77.4074C560.495 -66.0842 586.037 -63.3565 611.381 -66.1652C646.001 -70.1843 680.664 -84.4633 710.447 -101.902C726.938 -111.523 742.628 -121.955 757.788 -132.182C790.037 -153.944 819.53 -175.902 852.979 -191.113C901.945 -213.744 965.206 -220.867 1021.4 -187.783C1027.05 -184.503 1032.49 -180.857 1037.65 -176.965C1093.51 -135.615 1120.63 -68.8089 1129.28 -7.19601C1138.75 60.2771 1133.96 131.175 1155.77 205.367C1162.39 227.779 1171.41 250.102 1182.55 271.604C1203.32 311.682 1231.4 348.926 1264.06 378.502C1314.14 423.779 1374.84 450.904 1430.19 453.862" stroke="url(#paint22_linear_2794_44082)" stroke-width="2" stroke-miterlimit="10"/>
<path opacity="0.6" d="M16.5226 -125.054C48.6312 -168.232 90.4214 -201.832 137.767 -221.729C165.393 -233.421 195.17 -240.193 225.556 -241.308C245.394 -241.982 265.553 -240.255 285.458 -236.043C348.433 -222.85 409.655 -186.525 461.588 -143.371C486.416 -122.687 508.836 -99.1036 536.444 -85.3898C560.623 -73.2936 586.448 -69.8339 612.099 -72.4808C647.014 -76.0529 681.994 -90.4551 711.812 -108.749C728.373 -118.818 743.932 -129.901 759.173 -140.861C791.442 -164.456 821.132 -188.734 855.142 -206.268C904.81 -232.117 969.596 -242.217 1026.4 -208.81C1032.1 -205.408 1037.54 -201.761 1042.85 -197.788C1098.68 -155.584 1124.77 -83.8887 1131.57 -18.8907C1139.11 52.4156 1131.45 125.969 1152.05 202.038C1158.22 225.184 1167.06 247.996 1178.13 269.946C1198.71 310.798 1227.09 348.49 1260.48 378.063C1311.65 423.336 1374.22 449.316 1431.7 449.906" stroke="url(#paint23_linear_2794_44082)" stroke-width="2" stroke-miterlimit="10"/>
<path opacity="0.6" d="M18.1161 -137.597C50.4026 -180.002 92.4179 -212.707 139.836 -231.79C167.439 -242.912 197.051 -249.48 227.226 -250.512C246.957 -251.145 266.811 -249.58 286.62 -245.613C349.312 -233.151 410.449 -198.617 461.559 -154.443C486.306 -133.026 508.728 -108.18 536.455 -93.5306C560.859 -80.5394 586.979 -76.6328 612.925 -78.8327C648.241 -81.999 683.492 -96.6463 713.285 -115.633C729.81 -126.108 745.392 -137.761 760.62 -149.698C792.957 -175.003 822.902 -201.766 857.32 -221.704C907.747 -250.934 974.001 -263.848 1031.42 -230.117C1037.12 -226.715 1042.71 -222.988 1047.92 -218.974C1103.86 -175.833 1128.72 -99.4519 1133.82 -30.9878C1139.4 44.0298 1129.06 120.442 1148.23 198.469C1154.01 222.187 1162.57 245.529 1173.57 267.927C1194.02 309.675 1222.64 347.692 1256.65 377.304C1308.92 422.574 1373.36 447.407 1433.02 445.751" stroke="url(#paint24_linear_2794_44082)" stroke-width="2" stroke-miterlimit="10"/>
<path opacity="0.6" d="M19.7669 -150.306C52.1839 -192.06 94.5189 -223.626 141.961 -242.017C169.495 -252.691 198.884 -258.892 228.952 -259.883C248.531 -260.597 268.278 -258.991 287.887 -255.227C350.189 -243.456 411.194 -210.835 461.682 -165.438C486.395 -143.165 508.724 -117.301 536.771 -101.513C561.4 -87.6264 587.863 -83.151 614.162 -85.067C649.88 -87.8275 685.342 -102.557 715.322 -122.317C731.917 -133.241 747.368 -145.545 762.524 -158.296C794.729 -185.514 825.129 -214.559 860.003 -236.777C911.237 -269.268 979.017 -285.159 1037.05 -251.104C1042.86 -247.743 1048.38 -243.852 1053.59 -239.838C1109.61 -195.884 1133.34 -114.573 1136.58 -42.7233C1140.03 35.9245 1127.03 115.195 1145.02 195.221C1150.41 219.51 1158.85 243.464 1169.62 266.229C1189.88 308.751 1218.8 347.214 1253.54 376.824C1306.8 422.131 1373.22 445.778 1435.05 441.875" stroke="url(#paint25_linear_2794_44082)" stroke-width="2" stroke-miterlimit="10"/>
<path opacity="0.6" d="M21.3609 -162.851C72.7794 -227.546 149.399 -266.51 230.516 -269.049C311.634 -271.588 396.247 -237.455 461.489 -176.307C486.168 -153.179 508.452 -126.176 536.724 -109.492C595.248 -74.7873 664.648 -93.4114 716.689 -129.161C768.625 -164.87 810.128 -216.18 862.122 -252.052C914.011 -287.883 983.364 -306.629 1042 -272.25C1110.32 -232.08 1137.25 -136.855 1138.83 -54.5373C1140.35 27.9438 1124.58 109.829 1141.14 191.814C1155.61 263.383 1195.31 330.922 1249.66 376.226C1304.01 421.53 1372.3 444.03 1436.3 437.882" stroke="url(#paint26_linear_2794_44082)" stroke-width="2" stroke-miterlimit="10"/>
<path opacity="0.6" d="M37.2474 -174.343C88.6679 -237.777 164.713 -275.395 244.96 -277.035C325.208 -278.676 408.891 -244.743 472.932 -183.551C497.895 -159.691 519.957 -131.059 547.925 -113.275C604.673 -77.18 672.37 -93.6001 723.557 -126.212C774.638 -158.784 816.217 -206.755 868.238 -240.673C920.906 -275.122 990.056 -295.333 1049.24 -262.707C1117.84 -224.614 1147.18 -131.025 1149.95 -48.4669C1152.72 34.0917 1136.04 116.753 1150.35 197.361C1162.76 267.064 1200.31 332.208 1251.62 376.585C1302.93 420.962 1368.07 444.124 1430.19 439.406" stroke="url(#paint27_linear_2794_44082)" stroke-width="2" stroke-miterlimit="10"/>
<path opacity="0.6" d="M53.289 -185.754C104.653 -247.762 180.182 -284.197 259.618 -285.102C339.054 -286.007 421.795 -251.991 484.53 -190.713C509.824 -165.999 531.465 -135.94 559.128 -117.056C613.947 -79.6524 680.093 -93.7876 730.32 -123.221C780.7 -152.574 822.308 -197.329 874.308 -229.414C927.802 -262.36 996.761 -284.321 1056.53 -253.325C1125.48 -217.473 1157.11 -125.194 1161.19 -42.7215C1165.27 39.7514 1147.72 123.311 1159.64 202.461C1169.83 270.217 1205.44 333.169 1253.71 376.619C1302.09 420.028 1363.96 443.893 1424.2 440.606" stroke="url(#paint28_linear_2794_44082)" stroke-width="2" stroke-miterlimit="10"/>
<path opacity="0.6" d="M69.1781 -197.242C120.591 -257.866 195.546 -292.956 274.123 -293.248C352.701 -293.539 434.442 -259.275 495.975 -197.953C521.6 -172.385 542.82 -140.9 570.332 -120.835C623.328 -82.1629 687.665 -94.0531 737.19 -120.268C786.716 -146.483 828.352 -188.022 880.485 -218.194C934.7 -249.595 1003.57 -273.347 1063.82 -243.94C1133.17 -210.207 1167.05 -119.36 1172.43 -36.9731C1177.82 45.4142 1159.24 129.792 1168.87 207.728C1177 273.332 1210.35 334.215 1255.73 376.819C1301.07 419.302 1359.74 443.705 1418.15 441.972" stroke="url(#paint29_linear_2794_44082)" stroke-width="2" stroke-miterlimit="10"/>
<path opacity="0.6" d="M85.1702 -208.777C136.48 -268.097 211.071 -301.924 288.779 -301.317C366.486 -300.711 447.286 -266.362 507.571 -205.117C533.527 -178.696 554.278 -145.906 581.686 -124.537C632.812 -84.7197 695.539 -94.162 744.258 -117.117C792.976 -140.072 834.641 -178.395 886.859 -206.776C941.959 -236.836 1010.52 -262.012 1071.42 -234.399C1141.17 -202.784 1177.24 -113.492 1183.98 -31.0679C1190.61 51.3968 1171.13 136.266 1178.46 212.987C1184.48 276.604 1215.78 335.335 1258.12 377.013C1300.47 418.691 1355.94 443.634 1412.51 443.453" stroke="url(#paint30_linear_2794_44082)" stroke-width="2" stroke-miterlimit="10"/>
<path opacity="0.6" d="M101.106 -220.149C152.465 -278.085 226.434 -310.689 303.225 -309.305C380.015 -307.922 459.873 -273.489 518.91 -212.322C545.197 -185.046 565.632 -150.871 592.736 -128.402C641.992 -87.4388 703.11 -94.4331 750.974 -114.251C798.838 -134.068 840.732 -168.971 892.882 -195.642C948.809 -224.198 1017.12 -250.962 1078.55 -225.101C1148.6 -195.563 1187.13 -107.785 1194.96 -25.3651C1202.9 57.014 1182.5 142.659 1187.43 218.208C1191.45 279.795 1220.54 336.294 1259.84 377.045C1299.15 417.797 1351.47 443.401 1406.05 444.693" stroke="url(#paint31_linear_2794_44082)" stroke-width="2" stroke-miterlimit="10"/>
<path opacity="0.6" d="M117.099 -231.68C168.401 -288.191 241.855 -319.613 317.881 -317.372C393.908 -315.131 472.612 -280.531 530.507 -219.483C557.125 -191.353 577.091 -155.874 603.985 -132.061C651.429 -90.1142 710.727 -94.5785 757.889 -111.177C804.946 -127.735 846.869 -159.422 899.104 -184.302C955.905 -211.232 1023.88 -239.827 1086 -215.638C1156.44 -188.218 1197.22 -101.872 1206.4 -19.4156C1215.59 63.041 1194.39 149.137 1196.91 223.513C1198.99 282.907 1225.75 337.5 1262.13 377.283C1298.5 417.067 1347.51 443.252 1400.26 446.096" stroke="url(#paint32_linear_2794_44082)" stroke-width="2" stroke-miterlimit="10"/>
<path opacity="0.6" d="M132.986 -243.171C184.338 -298.299 257.169 -328.497 332.384 -325.52C407.6 -322.544 485.197 -287.656 541.95 -226.726C568.899 -197.742 588.502 -161 615.139 -135.964C660.725 -93.1571 718.402 -94.8883 764.604 -108.308C810.912 -121.77 852.958 -149.996 905.173 -173.044C962.8 -198.471 1030.63 -228.693 1093.18 -206.215C1163.91 -180.873 1207 -96.1224 1217.54 -13.6294C1228.08 68.8636 1205.93 155.329 1206.14 228.776C1206.27 285.978 1230.77 338.502 1264.15 377.48C1297.49 416.337 1343.23 443.225 1394.21 447.459" stroke="url(#paint33_linear_2794_44082)" stroke-width="2" stroke-miterlimit="10"/>
<path opacity="0.6" d="M149.031 -254.577C200.279 -308.402 272.641 -337.295 346.939 -333.542C421.238 -329.79 497.835 -294.654 553.445 -233.842C580.726 -204.005 599.812 -166.08 626.393 -139.62C670.225 -95.9923 726.176 -94.9495 771.524 -105.232C817.025 -115.434 857.929 -143.779 911.4 -161.701C971.319 -181.842 1037.43 -217.433 1100.63 -196.748C1171.65 -173.483 1217.09 -90.2061 1228.83 -7.75765C1240.57 74.6908 1217.77 161.687 1215.37 234.043C1213.6 289.175 1235.84 339.63 1266.13 377.56C1296.48 415.612 1338.98 442.917 1388.12 448.704" stroke="url(#paint34_linear_2794_44082)" stroke-width="2" stroke-miterlimit="10"/>
<path opacity="0.6" d="M164.918 -266.069C216.215 -318.509 288.061 -346.22 361.49 -341.569C434.977 -337.081 510.468 -301.657 564.889 -241.085C592.5 -210.394 611.224 -171.206 637.547 -143.523C679.627 -99.076 733.698 -95.3401 778.392 -102.282C823.038 -109.346 864.183 -134.557 917.575 -150.483C978.463 -168.755 1044.18 -206.299 1107.92 -187.367C1179.34 -166.22 1227.02 -84.3752 1240.07 -2.01235C1253.12 80.3505 1229.52 167.797 1224.66 239.143C1221.04 292.042 1240.81 340.51 1268.22 377.594C1295.63 414.678 1334.87 442.686 1382.12 449.904" stroke="url(#paint35_linear_2794_44082)" stroke-width="2" stroke-miterlimit="10"/>
<path opacity="0.6" d="M180.912 -277.602C232.258 -328.658 303.482 -355.146 376.099 -349.759C448.716 -344.373 523.054 -308.782 576.438 -248.371C604.275 -216.784 622.695 -176.496 648.749 -147.306C689.029 -102.161 741.421 -95.5288 785.26 -99.333C829.099 -103.137 871.738 -121.35 923.75 -139.267C984.163 -160.021 1050.89 -195.288 1115.32 -178.028C1187.03 -158.958 1237.17 -78.6275 1251.42 3.69085C1265.67 86.0092 1241.48 173.824 1233.99 244.364C1228.64 294.989 1245.98 341.591 1270.35 377.749C1294.72 413.906 1330.8 442.575 1376.18 451.225" stroke="url(#paint36_linear_2794_44082)" stroke-width="2" stroke-miterlimit="10"/>
<path opacity="0.6" d="M196.848 -288.971C248.137 -338.602 318.892 -363.785 390.651 -357.785C462.41 -351.785 535.688 -315.784 587.931 -255.491C616.098 -223.05 634.214 -181.662 660 -150.964C698.632 -105.041 749.086 -95.5526 792.177 -96.2601C835.162 -96.9266 877.924 -111.679 929.867 -127.886C991.155 -147.014 1057.58 -183.99 1122.5 -168.604C1194.55 -151.49 1246.95 -72.8766 1262.55 9.47809C1278.16 91.8328 1253.23 179.935 1243.17 249.506C1236.14 297.978 1250.95 342.472 1272.28 377.702C1293.61 412.933 1326.49 442.142 1370.04 452.344" stroke="url(#paint37_linear_2794_44082)" stroke-width="2" stroke-miterlimit="10"/>
<path opacity="0.6" d="M212.84 -300.508C264.131 -348.877 334.312 -372.715 405.201 -365.816C476.09 -358.918 548.262 -322.628 599.421 -262.616C627.813 -229.281 645.624 -186.792 671.201 -154.751C708.197 -108.333 756.76 -95.8668 798.938 -93.2736C841.116 -90.6804 884.107 -102.014 935.983 -116.511C998.297 -133.932 1064.27 -172.698 1129.73 -159.064C1202.07 -144.028 1256.83 -66.8873 1273.68 15.5448C1290.53 97.977 1265.18 186.244 1252.28 255.091C1243.72 301.206 1255.79 343.958 1274.19 378.221C1292.58 412.484 1322.21 442.395 1363.87 454.028" stroke="url(#paint38_linear_2794_44082)" stroke-width="2" stroke-miterlimit="10"/>
<path opacity="0.6" d="M228.776 -311.874C280.011 -358.818 349.675 -381.473 419.753 -373.839C489.831 -366.205 560.791 -329.586 610.807 -269.693C639.578 -235.382 657.038 -191.915 682.346 -158.366C717.754 -111.333 764.426 -95.8882 805.749 -90.1573C847.179 -84.4675 890.34 -92.2188 942.101 -105.127C1005.29 -120.922 1070.86 -161.357 1137.07 -149.558C1209.7 -136.598 1266.81 -60.9312 1284.97 21.4154C1303.12 103.762 1277.29 192.356 1261.61 260.316C1251.47 304.238 1260.91 344.922 1276.32 378.38C1291.72 411.838 1318.15 442.289 1357.93 455.353" stroke="url(#paint39_linear_2794_44082)" stroke-width="2" stroke-miterlimit="10"/>
<path opacity="0.6" d="M244.77 -323.408C296.054 -368.967 365.203 -390.441 434.363 -382.03C503.524 -373.62 573.425 -336.59 622.31 -277.1C651.306 -241.894 668.673 -197.409 693.454 -162.393C727.274 -114.744 771.949 -96.2801 812.571 -87.3306C853.193 -78.3811 896.584 -82.7132 948.229 -94.0336C1012.44 -108.122 1077.57 -150.346 1144.32 -140.3C1217.29 -129.296 1276.75 -55.3866 1296.16 27.0374C1315.57 109.461 1289.46 198.301 1270.9 265.415C1259.39 307.061 1266.03 345.881 1278.35 378.291C1290.72 410.822 1313.94 441.812 1351.94 456.552" stroke="url(#paint40_linear_2794_44082)" stroke-width="2" stroke-miterlimit="10"/>
<path opacity="0.6" d="M260.658 -334.895C311.838 -379.152 380.518 -399.321 448.914 -390.053C517.311 -380.785 585.847 -343.506 633.802 -284.217C663.023 -248.116 680.144 -202.694 704.703 -166.048C736.993 -117.946 779.672 -96.4636 819.487 -84.2544C859.302 -72.0453 902.922 -72.9581 954.452 -82.6903C1019.69 -95.072 1084.41 -138.964 1151.76 -130.833C1225.02 -121.906 1286.84 -49.4705 1307.45 32.9089C1328.16 115.247 1301.84 204.454 1280.12 270.683C1267.19 310.216 1271.05 346.887 1280.38 378.492C1289.71 410.096 1309.77 441.748 1345.89 457.919" stroke="url(#paint41_linear_2794_44082)" stroke-width="2" stroke-miterlimit="10"/>
<path opacity="0.6" d="M276.698 -346.308C327.928 -389.18 395.985 -408.126 463.465 -398.082C530.944 -388.037 598.421 -350.348 645.292 -291.341C674.786 -254.223 691.767 -207.904 715.953 -169.71C746.76 -121.034 787.442 -96.5317 826.402 -81.1849C865.363 -65.8381 909.306 -63.0877 960.674 -71.3537C1026.88 -81.8657 1091.21 -127.711 1159.1 -121.332C1232.7 -114.361 1296.82 -43.5202 1318.74 38.7736C1340.7 121.189 1314.25 210.722 1289.5 276.024C1275.35 313.363 1276.11 348.008 1282.56 378.767C1288.95 409.404 1305.71 441.636 1339.88 459.401" stroke="url(#paint42_linear_2794_44082)" stroke-width="2" stroke-miterlimit="10"/>
<path opacity="0.6" d="M292.585 -357.8C343.758 -399.247 411.3 -417.01 477.968 -406.231C544.636 -395.451 610.795 -357.391 656.736 -298.584C686.455 -260.571 703.343 -213.234 727.107 -173.614C756.432 -124.363 795.011 -96.8009 833.117 -78.3164C871.27 -59.7099 915.337 -53.4993 966.695 -60.2182C1033.83 -68.9824 1097.81 -116.659 1166.34 -112.073C1240.23 -107.179 1306.66 -37.9339 1329.98 44.5183C1353.29 126.971 1326.78 216.951 1298.68 281.165C1283.21 316.35 1281.13 349.009 1284.49 378.719C1287.84 408.43 1301.45 441.324 1333.74 460.519" stroke="url(#paint43_linear_2794_44082)" stroke-width="2" stroke-miterlimit="10"/>
<path opacity="0.6" d="M308.473 -369.29C359.695 -409.353 426.614 -425.893 492.519 -414.255C558.423 -402.618 623.37 -364.229 668.18 -305.825C698.171 -266.795 714.978 -218.725 738.203 -177.353C766.104 -127.69 802.581 -97.0676 839.879 -75.3234C877.178 -53.5792 921.569 -43.7054 972.812 -48.836C1041.02 -55.7716 1104.51 -105.36 1173.57 -102.527C1247.8 -99.5882 1316.64 -31.979 1341.16 50.4287C1365.67 132.836 1339.4 223.427 1307.91 286.43C1291.37 319.502 1286.15 350.013 1286.51 378.918C1286.98 407.783 1297.28 441.257 1327.69 461.884" stroke="url(#paint44_linear_2794_44082)" stroke-width="2" stroke-miterlimit="10"/>
<path opacity="0.6" d="M324.515 -380.701C375.739 -419.502 442.131 -434.575 507.177 -422.324C572.117 -410.032 635.946 -371.069 679.778 -312.989C709.995 -273.064 726.815 -224.017 749.513 -181.177C776.037 -130.98 810.305 -97.2566 846.902 -72.2938C883.5 -47.331 928.061 -33.8749 979.142 -37.5393C1048.32 -42.6051 1111.35 -93.9834 1181.13 -93.1069C1255.69 -92.1236 1326.84 -26.1096 1352.55 56.2535C1378.38 138.576 1352.38 229.898 1317.4 291.731C1299.74 322.852 1291.37 351.216 1288.8 379.154C1286.23 407.091 1293.32 441.105 1321.9 463.285" stroke="url(#paint45_linear_2794_44082)" stroke-width="2" stroke-miterlimit="10"/>
<path opacity="0.6" d="M340.404 -392.188C391.678 -429.605 457.553 -443.495 521.682 -430.468C585.858 -417.319 648.369 -377.985 691.223 -320.227C721.606 -279.244 738.605 -229.424 760.716 -184.954C785.969 -134.264 818.029 -97.4395 853.772 -69.339C889.515 -41.2385 934.295 -24.0782 985.212 -26.2764C1055.4 -29.3505 1118 -82.8038 1188.31 -83.6797C1263.21 -84.6516 1336.67 -20.2328 1363.69 62.0447C1390.71 144.322 1365.21 236.579 1326.47 296.919C1307.69 326.089 1296.23 352.142 1290.62 379.153C1285.02 406.164 1288.96 440.839 1315.65 464.449" stroke="url(#paint46_linear_2794_44082)" stroke-width="2" stroke-miterlimit="10"/>
<path opacity="0.6" d="M356.397 -403.727C407.614 -439.718 472.973 -452.426 536.232 -438.5C599.491 -424.575 660.79 -384.912 702.714 -327.354C733.322 -285.476 750.334 -234.679 771.918 -188.741C795.9 -137.559 825.704 -97.7551 860.64 -66.395C895.576 -35.0349 940.573 -14.1702 991.387 -15.0653C1062.55 -16.2696 1124.8 -71.554 1195.71 -74.3453C1270.95 -77.2727 1346.66 -14.5709 1375.04 67.743C1403.41 150.057 1378.44 243.371 1335.91 302.094C1316.06 329.435 1301.51 353.177 1292.86 379.261C1284.32 405.305 1285 440.683 1309.81 465.724" stroke="url(#paint47_linear_2794_44082)" stroke-width="2" stroke-miterlimit="10"/>
<path opacity="0.6" d="M372.333 -415.096C423.493 -449.662 488.336 -461.188 550.784 -446.526C613.232 -431.865 673.154 -391.669 714.159 -334.597C744.933 -291.661 762.229 -240.132 783.015 -192.481C805.727 -140.807 833.322 -97.9013 867.403 -63.4034C901.485 -28.9056 946.806 -4.37783 997.457 -3.80669C1069.53 -2.9782 1131.45 -60.3786 1202.89 -64.9224C1278.47 -69.805 1356.49 -8.69855 1386.07 73.5708C1415.69 155.962 1391.29 250.455 1344.88 307.317C1324 332.952 1306.16 354.18 1294.63 379.419C1283.09 404.658 1280.42 440.494 1303.5 467.047" stroke="url(#paint48_linear_2794_44082)" stroke-width="2" stroke-miterlimit="10"/>
<path opacity="0.6" d="M388.33 -426.622C439.492 -459.926 503.761 -470.106 565.291 -454.669C626.822 -439.231 685.579 -398.583 725.606 -341.834C756.5 -297.962 774.021 -245.538 794.221 -196.257C815.709 -143.968 840.943 -98.0419 874.17 -60.4064C907.444 -22.6489 952.983 5.58319 1003.58 7.57949C1076.66 10.3997 1138.08 -48.9127 1210.13 -55.3719C1286.05 -62.2099 1366.47 -2.73969 1397.3 79.6071C1428.13 161.954 1404.45 257.992 1354.2 312.831C1332.3 336.759 1311.32 355.554 1296.7 379.744C1282.13 404.056 1276.3 440.554 1297.5 468.538" stroke="url(#paint49_linear_2794_44082)" stroke-width="2" stroke-miterlimit="10"/>
<path opacity="0.6" d="M404.216 -438.115C455.321 -469.995 519.074 -478.992 579.84 -462.697C640.56 -446.524 697.999 -405.505 737.096 -348.957C768.156 -304.026 785.96 -250.87 805.421 -200.04C825.639 -147.259 848.617 -98.3535 881.084 -57.3363C913.503 -16.4412 959.26 15.4952 1009.8 18.9166C1083.84 23.8916 1144.93 -37.5368 1217.57 -45.9115C1293.83 -54.7048 1376.51 3.0482 1408.69 85.4314C1440.87 167.815 1417.87 265.275 1363.59 317.888C1340.66 340.109 1316.5 356.35 1298.89 379.735C1281.28 403.12 1272.25 440.158 1291.66 469.817" stroke="url(#paint50_linear_2794_44082)" stroke-width="2" stroke-miterlimit="10"/>
<path opacity="0.6" d="M420.256 -449.528C471.412 -480.023 534.648 -487.839 594.497 -470.767C654.347 -453.696 710.468 -412.306 748.693 -356.121C779.872 -310.255 798.055 -256.123 816.777 -203.743C835.876 -150.388 856.387 -98.4215 888.105 -54.3077C919.824 -10.1939 965.692 25.4877 1016.13 30.2124C1091.08 37.2201 1151.88 -26.2023 1225.02 -36.4514C1301.66 -47.078 1386.6 8.95776 1420.09 91.2554C1453.57 173.553 1431.27 273.128 1373.02 323.352C1349 344.029 1321.66 357.715 1301.12 380.132C1280.57 402.55 1268.28 440.29 1285.81 471.38" stroke="url(#paint51_linear_2794_44082)" stroke-width="2" stroke-miterlimit="10"/>
<path opacity="0.6" d="M436.145 -461.019C487.196 -490.21 550.011 -496.599 609.002 -478.914C668.04 -461.107 722.785 -419.184 760.09 -363.485C791.436 -316.561 809.903 -261.697 827.779 -207.727C845.656 -153.757 863.91 -98.8109 894.774 -51.5594C925.638 -4.30793 971.666 35.241 1022.1 41.2277C1098.01 50.3902 1158.43 -15.2703 1232.21 -27.3128C1309.15 -40.0168 1396.44 14.5458 1431.13 96.7989C1465.82 179.052 1444.31 280.701 1382.11 328.25C1356.94 347.547 1326.54 358.352 1302.95 379.843C1279.37 401.333 1263.92 439.735 1279.58 472.256" stroke="url(#paint52_linear_2794_44082)" stroke-width="2" stroke-miterlimit="10"/>
<rect opacity="0.9" x="382" y="-64" width="898" height="505" fill="url(#paint53_linear_2794_44082)"/>
</g>
<defs>
<linearGradient id="paint0_linear_2794_44082" x1="496.041" y1="-156.016" x2="848.302" y2="752.685" gradientUnits="userSpaceOnUse">
<stop stop-color="white"/>
<stop offset="1" stop-color="#FF1F01" stop-opacity="0"/>
</linearGradient>
<linearGradient id="paint1_linear_2794_44082" x1="495.672" y1="-164.41" x2="849.817" y2="749.149" gradientUnits="userSpaceOnUse">
<stop stop-color="white"/>
<stop offset="1" stop-color="#FF1F01" stop-opacity="0"/>
</linearGradient>
<linearGradient id="paint2_linear_2794_44082" x1="495.269" y1="-173.135" x2="851.271" y2="745.214" gradientUnits="userSpaceOnUse">
<stop stop-color="white"/>
<stop offset="1" stop-color="#FF1F01" stop-opacity="0"/>
</linearGradient>
<linearGradient id="paint3_linear_2794_44082" x1="495.419" y1="-181.884" x2="853.214" y2="741.094" gradientUnits="userSpaceOnUse">
<stop stop-color="white"/>
<stop offset="1" stop-color="#FF1F01" stop-opacity="0"/>
</linearGradient>
<linearGradient id="paint4_linear_2794_44082" x1="496.172" y1="-190.929" x2="855.782" y2="736.729" gradientUnits="userSpaceOnUse">
<stop stop-color="white"/>
<stop offset="1" stop-color="#FF1F01" stop-opacity="0"/>
</linearGradient>
<linearGradient id="paint5_linear_2794_44082" x1="497.24" y1="-200.189" x2="858.556" y2="731.871" gradientUnits="userSpaceOnUse">
<stop stop-color="white"/>
<stop offset="1" stop-color="#FF1F01" stop-opacity="0"/>
</linearGradient>
<linearGradient id="paint6_linear_2794_44082" x1="498.466" y1="-209.438" x2="861.698" y2="727.564" gradientUnits="userSpaceOnUse">
<stop stop-color="white"/>
<stop offset="1" stop-color="#FF1F01" stop-opacity="0"/>
</linearGradient>
<linearGradient id="paint7_linear_2794_44082" x1="499.61" y1="-218.746" x2="864.742" y2="723.156" gradientUnits="userSpaceOnUse">
<stop stop-color="white"/>
<stop offset="1" stop-color="#FF1F01" stop-opacity="0"/>
</linearGradient>
<linearGradient id="paint8_linear_2794_44082" x1="500.934" y1="-228.054" x2="867.894" y2="718.564" gradientUnits="userSpaceOnUse">
<stop stop-color="white"/>
<stop offset="1" stop-color="#FF1F01" stop-opacity="0"/>
</linearGradient>
<linearGradient id="paint9_linear_2794_44082" x1="502.044" y1="-237.288" x2="870.93" y2="714.299" gradientUnits="userSpaceOnUse">
<stop stop-color="white"/>
<stop offset="1" stop-color="#FF1F01" stop-opacity="0"/>
</linearGradient>
<linearGradient id="paint10_linear_2794_44082" x1="503.242" y1="-246.608" x2="873.883" y2="709.505" gradientUnits="userSpaceOnUse">
<stop stop-color="white"/>
<stop offset="1" stop-color="#FF1F01" stop-opacity="0"/>
</linearGradient>
<linearGradient id="paint11_linear_2794_44082" x1="504.343" y1="-255.865" x2="876.825" y2="704.997" gradientUnits="userSpaceOnUse">
<stop stop-color="white"/>
<stop offset="1" stop-color="#FF1F01" stop-opacity="0"/>
</linearGradient>
<linearGradient id="paint12_linear_2794_44082" x1="505.604" y1="-265.338" x2="879.979" y2="700.408" gradientUnits="userSpaceOnUse">
<stop stop-color="white"/>
<stop offset="1" stop-color="#FF1F01" stop-opacity="0"/>
</linearGradient>
<linearGradient id="paint13_linear_2794_44082" x1="506.718" y1="-274.568" x2="882.876" y2="695.778" gradientUnits="userSpaceOnUse">
<stop stop-color="white"/>
<stop offset="1" stop-color="#FF1F01" stop-opacity="0"/>
</linearGradient>
<linearGradient id="paint14_linear_2794_44082" x1="507.971" y1="-283.899" x2="885.975" y2="691.208" gradientUnits="userSpaceOnUse">
<stop stop-color="white"/>
<stop offset="1" stop-color="#FF1F01" stop-opacity="0"/>
</linearGradient>
<linearGradient id="paint15_linear_2794_44082" x1="509.163" y1="-293.396" x2="889.124" y2="686.76" gradientUnits="userSpaceOnUse">
<stop stop-color="white"/>
<stop offset="1" stop-color="#FF1F01" stop-opacity="0"/>
</linearGradient>
<linearGradient id="paint16_linear_2794_44082" x1="510.289" y1="-302.749" x2="892.168" y2="682.357" gradientUnits="userSpaceOnUse">
<stop stop-color="white"/>
<stop offset="1" stop-color="#FF1F01" stop-opacity="0"/>
</linearGradient>
<linearGradient id="paint17_linear_2794_44082" x1="511.422" y1="-312.075" x2="895.208" y2="677.946" gradientUnits="userSpaceOnUse">
<stop stop-color="white"/>
<stop offset="1" stop-color="#FF1F01" stop-opacity="0"/>
</linearGradient>
<linearGradient id="paint18_linear_2794_44082" x1="512.437" y1="-321.556" x2="898.15" y2="673.439" gradientUnits="userSpaceOnUse">
<stop stop-color="white"/>
<stop offset="1" stop-color="#FF1F01" stop-opacity="0"/>
</linearGradient>
<linearGradient id="paint19_linear_2794_44082" x1="513.748" y1="-331.061" x2="901.405" y2="668.949" gradientUnits="userSpaceOnUse">
<stop stop-color="white"/>
<stop offset="1" stop-color="#FF1F01" stop-opacity="0"/>
</linearGradient>
<linearGradient id="paint20_linear_2794_44082" x1="514.805" y1="-340.588" x2="904.352" y2="664.296" gradientUnits="userSpaceOnUse">
<stop stop-color="white"/>
<stop offset="1" stop-color="#FF1F01" stop-opacity="0"/>
</linearGradient>
<linearGradient id="paint21_linear_2794_44082" x1="515.935" y1="-350.086" x2="907.4" y2="659.747" gradientUnits="userSpaceOnUse">
<stop stop-color="white"/>
<stop offset="1" stop-color="#FF1F01" stop-opacity="0"/>
</linearGradient>
<linearGradient id="paint22_linear_2794_44082" x1="517.003" y1="-359.587" x2="910.445" y2="655.344" gradientUnits="userSpaceOnUse">
<stop stop-color="white"/>
<stop offset="1" stop-color="#FF1F01" stop-opacity="0"/>
</linearGradient>
<linearGradient id="paint23_linear_2794_44082" x1="518.005" y1="-369.255" x2="913.438" y2="650.813" gradientUnits="userSpaceOnUse">
<stop stop-color="white"/>
<stop offset="1" stop-color="#FF1F01" stop-opacity="0"/>
</linearGradient>
<linearGradient id="paint24_linear_2794_44082" x1="518.995" y1="-378.798" x2="916.286" y2="646.063" gradientUnits="userSpaceOnUse">
<stop stop-color="white"/>
<stop offset="1" stop-color="#FF1F01" stop-opacity="0"/>
</linearGradient>
<linearGradient id="paint25_linear_2794_44082" x1="520.229" y1="-388.654" x2="919.64" y2="641.674" gradientUnits="userSpaceOnUse">
<stop stop-color="white"/>
<stop offset="1" stop-color="#FF1F01" stop-opacity="0"/>
</linearGradient>
<linearGradient id="paint26_linear_2794_44082" x1="521.13" y1="-398.273" x2="922.483" y2="637.065" gradientUnits="userSpaceOnUse">
<stop stop-color="white"/>
<stop offset="1" stop-color="#FF1F01" stop-opacity="0"/>
</linearGradient>
<linearGradient id="paint27_linear_2794_44082" x1="525.956" y1="-403.419" x2="928.128" y2="634.033" gradientUnits="userSpaceOnUse">
<stop stop-color="white"/>
<stop offset="1" stop-color="#FF1F01" stop-opacity="0"/>
</linearGradient>
<linearGradient id="paint28_linear_2794_44082" x1="530.981" y1="-408.524" x2="933.839" y2="630.696" gradientUnits="userSpaceOnUse">
<stop stop-color="white"/>
<stop offset="1" stop-color="#FF1F01" stop-opacity="0"/>
</linearGradient>
<linearGradient id="paint29_linear_2794_44082" x1="535.864" y1="-413.682" x2="939.492" y2="627.526" gradientUnits="userSpaceOnUse">
<stop stop-color="white"/>
<stop offset="1" stop-color="#FF1F01" stop-opacity="0"/>
</linearGradient>
<linearGradient id="paint30_linear_2794_44082" x1="540.919" y1="-419.023" x2="945.449" y2="624.512" gradientUnits="userSpaceOnUse">
<stop stop-color="white"/>
<stop offset="1" stop-color="#FF1F01" stop-opacity="0"/>
</linearGradient>
<linearGradient id="paint31_linear_2794_44082" x1="545.646" y1="-424.115" x2="950.848" y2="621.154" gradientUnits="userSpaceOnUse">
<stop stop-color="white"/>
<stop offset="1" stop-color="#FF1F01" stop-opacity="0"/>
</linearGradient>
<linearGradient id="paint32_linear_2794_44082" x1="550.639" y1="-429.459" x2="956.706" y2="618.042" gradientUnits="userSpaceOnUse">
<stop stop-color="white"/>
<stop offset="1" stop-color="#FF1F01" stop-opacity="0"/>
</linearGradient>
<linearGradient id="paint33_linear_2794_44082" x1="560.804" y1="-436.869" x2="967.709" y2="612.793" gradientUnits="userSpaceOnUse">
<stop stop-color="white"/>
<stop offset="1" stop-color="#FF1F01" stop-opacity="0"/>
</linearGradient>
<linearGradient id="paint34_linear_2794_44082" x1="571.842" y1="-444.56" x2="979.521" y2="607.098" gradientUnits="userSpaceOnUse">
<stop stop-color="white"/>
<stop offset="1" stop-color="#FF1F01" stop-opacity="0"/>
</linearGradient>
<linearGradient id="paint35_linear_2794_44082" x1="582.823" y1="-452.348" x2="991.314" y2="601.403" gradientUnits="userSpaceOnUse">
<stop stop-color="white"/>
<stop offset="1" stop-color="#FF1F01" stop-opacity="0"/>
</linearGradient>
<linearGradient id="paint36_linear_2794_44082" x1="593.967" y1="-460.26" x2="1003.34" y2="595.759" gradientUnits="userSpaceOnUse">
<stop stop-color="white"/>
<stop offset="1" stop-color="#FF1F01" stop-opacity="0"/>
</linearGradient>
<linearGradient id="paint37_linear_2794_44082" x1="605.041" y1="-467.997" x2="1015.15" y2="589.919" gradientUnits="userSpaceOnUse">
<stop stop-color="white"/>
<stop offset="1" stop-color="#FF1F01" stop-opacity="0"/>
</linearGradient>
<linearGradient id="paint38_linear_2794_44082" x1="616.099" y1="-476.014" x2="1027.22" y2="584.531" gradientUnits="userSpaceOnUse">
<stop stop-color="white"/>
<stop offset="1" stop-color="#FF1F01" stop-opacity="0"/>
</linearGradient>
<linearGradient id="paint39_linear_2794_44082" x1="627.284" y1="-483.937" x2="1039.29" y2="578.875" gradientUnits="userSpaceOnUse">
<stop stop-color="white"/>
<stop offset="1" stop-color="#FF1F01" stop-opacity="0"/>
</linearGradient>
<linearGradient id="paint40_linear_2794_44082" x1="638.524" y1="-492.076" x2="1051.42" y2="573.046" gradientUnits="userSpaceOnUse">
<stop stop-color="white"/>
<stop offset="1" stop-color="#FF1F01" stop-opacity="0"/>
</linearGradient>
<linearGradient id="paint41_linear_2794_44082" x1="649.721" y1="-500.297" x2="1063.6" y2="567.349" gradientUnits="userSpaceOnUse">
<stop stop-color="white"/>
<stop offset="1" stop-color="#FF1F01" stop-opacity="0"/>
</linearGradient>
<linearGradient id="paint42_linear_2794_44082" x1="661.039" y1="-508.436" x2="1075.89" y2="561.737" gradientUnits="userSpaceOnUse">
<stop stop-color="white"/>
<stop offset="1" stop-color="#FF1F01" stop-opacity="0"/>
</linearGradient>
<linearGradient id="paint43_linear_2794_44082" x1="672.275" y1="-516.738" x2="1088.04" y2="555.766" gradientUnits="userSpaceOnUse">
<stop stop-color="white"/>
<stop offset="1" stop-color="#FF1F01" stop-opacity="0"/>
</linearGradient>
<linearGradient id="paint44_linear_2794_44082" x1="683.487" y1="-525.082" x2="1100.26" y2="550.045" gradientUnits="userSpaceOnUse">
<stop stop-color="white"/>
<stop offset="1" stop-color="#FF1F01" stop-opacity="0"/>
</linearGradient>
<linearGradient id="paint45_linear_2794_44082" x1="694.903" y1="-533.468" x2="1112.73" y2="544.369" gradientUnits="userSpaceOnUse">
<stop stop-color="white"/>
<stop offset="1" stop-color="#FF1F01" stop-opacity="0"/>
</linearGradient>
<linearGradient id="paint46_linear_2794_44082" x1="706.119" y1="-541.946" x2="1124.91" y2="538.388" gradientUnits="userSpaceOnUse">
<stop stop-color="white"/>
<stop offset="1" stop-color="#FF1F01" stop-opacity="0"/>
</linearGradient>
<linearGradient id="paint47_linear_2794_44082" x1="717.497" y1="-550.564" x2="1137.38" y2="532.568" gradientUnits="userSpaceOnUse">
<stop stop-color="white"/>
<stop offset="1" stop-color="#FF1F01" stop-opacity="0"/>
</linearGradient>
<linearGradient id="paint48_linear_2794_44082" x1="728.715" y1="-559.048" x2="1149.61" y2="526.704" gradientUnits="userSpaceOnUse">
<stop stop-color="white"/>
<stop offset="1" stop-color="#FF1F01" stop-opacity="0"/>
</linearGradient>
<linearGradient id="paint49_linear_2794_44082" x1="739.969" y1="-567.813" x2="1162.07" y2="521.04" gradientUnits="userSpaceOnUse">
<stop stop-color="white"/>
<stop offset="1" stop-color="#FF1F01" stop-opacity="0"/>
</linearGradient>
<linearGradient id="paint50_linear_2794_44082" x1="751.283" y1="-576.627" x2="1174.54" y2="515.22" gradientUnits="userSpaceOnUse">
<stop stop-color="white"/>
<stop offset="1" stop-color="#FF1F01" stop-opacity="0"/>
</linearGradient>
<linearGradient id="paint51_linear_2794_44082" x1="762.69" y1="-585.42" x2="1187.18" y2="509.615" gradientUnits="userSpaceOnUse">
<stop stop-color="white"/>
<stop offset="1" stop-color="#FF1F01" stop-opacity="0"/>
</linearGradient>
<linearGradient id="paint52_linear_2794_44082" x1="773.864" y1="-594.384" x2="1199.4" y2="503.337" gradientUnits="userSpaceOnUse">
<stop stop-color="white"/>
<stop offset="1" stop-color="#FF1F01" stop-opacity="0"/>
</linearGradient>
<linearGradient id="paint53_linear_2794_44082" x1="1280" y1="179" x2="382.195" y2="198.141" gradientUnits="userSpaceOnUse">
<stop stop-color="white" stop-opacity="0.8"/>
<stop offset="1" stop-color="white" stop-opacity="0.1"/>
</linearGradient>
<clipPath id="clip0_2794_44082">
<rect width="1280" height="441" fill="white"/>
</clipPath>
</defs>
</svg>
